<?xml version="1.0" encoding="iso-8859-1"?>
<!-- Generator: Adobe Illustrator 19.0.0, SVG Export Plug-In . SVG Version: 6.00 Build 0)  -->
<svg 
	version="1.1" 
	id="Capa_1" 
	xmlns="http://www.w3.org/2000/svg" 
	xmlns:xlink="http://www.w3.org/1999/xlink" 
	x="0px" 
	y="0px"
	viewBox="0 0 511.992 511.992" 
	style="enable-background:new 0 0 511.992 511.992;" 
	xml:space="preserve">
	<g
	    id="Expand"
	    inkscape:label="Expand"	>	
		<path style=" stroke:none;fill-rule:nonzero;fill:rgb(0%,0%,0%);fill-opacity:1;" d="M 9.964844 4.882812 C 9.882812 4.765625 7.992188 2.082031 5 2.082031 C 2.433594 2.082031 0.144531 4.75 0.0507812 4.867188 C -0.015625 4.941406 -0.015625 5.058594 0.0507812 5.132812 C 0.144531 5.25 2.433594 7.917969 5 7.917969 C 7.566406 7.917969 9.855469 5.25 9.949219 5.132812 C 10.011719 5.0625 10.015625 4.960938 9.964844 4.882812 Z M 5 7.5 C 2.941406 7.5 0.984375 5.539062 0.488281 5 C 0.984375 4.460938 2.9375 2.5 5 2.5 C 7.40625 2.5 9.109375 4.460938 9.523438 4.988281 C 9.042969 5.507812 7.074219 7.5 5 7.5 Z M 5 7.5 "/>
		<path style=" stroke:none;fill-rule:nonzero;fill:rgb(0%,0%,0%);fill-opacity:1;" d="M 5 3.332031 C 4.082031 3.332031 3.332031 4.082031 3.332031 5 C 3.332031 5.917969 4.082031 6.667969 5 6.667969 C 5.917969 6.667969 6.667969 5.917969 6.667969 5 C 6.667969 4.082031 5.917969 3.332031 5 3.332031 Z M 5 6.25 C 4.3125 6.25 3.75 5.6875 3.75 5 C 3.75 4.3125 4.3125 3.75 5 3.75 C 5.6875 3.75 6.25 4.3125 6.25 5 C 6.25 5.6875 5.6875 6.25 5 6.25 Z M 5 6.25 "/>
	</g>
  	<g
     id="Collapse"
     inkscape:label="Collapse">
		<path style=" stroke:none;fill-rule:nonzero;fill:rgb(0%,0%,0%);fill-opacity:1;" d="M 6.179688 3.820312 C 6.097656 3.742188 5.964844 3.742188 5.882812 3.820312 C 5.800781 3.902344 5.800781 4.035156 5.882812 4.117188 C 6.121094 4.351562 6.25 4.664062 6.25 5 C 6.25 5.6875 5.6875 6.25 5 6.25 C 4.664062 6.25 4.351562 6.121094 4.117188 5.882812 C 4.035156 5.800781 3.902344 5.800781 3.820312 5.882812 C 3.742188 5.964844 3.742188 6.097656 3.820312 6.179688 C 4.136719 6.492188 4.554688 6.667969 5 6.667969 C 5.917969 6.667969 6.667969 5.917969 6.667969 5 C 6.667969 4.554688 6.492188 4.136719 6.179688 3.820312 Z M 6.179688 3.820312 "/>
		<path style=" stroke:none;fill-rule:nonzero;fill:rgb(0%,0%,0%);fill-opacity:1;" d="M 5.289062 3.363281 C 5.195312 3.34375 5.097656 3.332031 5 3.332031 C 4.082031 3.332031 3.332031 4.082031 3.332031 5 C 3.332031 5.097656 3.34375 5.195312 3.363281 5.289062 C 3.378906 5.390625 3.46875 5.460938 3.566406 5.460938 C 3.578125 5.460938 3.589844 5.460938 3.605469 5.460938 C 3.714844 5.4375 3.792969 5.332031 3.773438 5.21875 C 3.757812 5.148438 3.75 5.074219 3.75 5 C 3.75 4.3125 4.3125 3.75 5 3.75 C 5.074219 3.75 5.148438 3.757812 5.21875 3.773438 C 5.328125 3.792969 5.4375 3.714844 5.460938 3.601562 C 5.480469 3.492188 5.402344 3.382812 5.289062 3.363281 Z M 5.289062 3.363281 "/>
		<path style=" stroke:none;fill-rule:nonzero;fill:rgb(0%,0%,0%);fill-opacity:1;" d="M 9.949219 4.867188 C 9.902344 4.808594 8.777344 3.492188 7.222656 2.6875 C 7.121094 2.636719 6.992188 2.675781 6.941406 2.777344 C 6.886719 2.878906 6.929688 3.007812 7.03125 3.058594 C 8.226562 3.679688 9.183594 4.648438 9.511719 5 C 9.015625 5.539062 7.058594 7.5 5 7.5 C 4.300781 7.5 3.597656 7.332031 2.90625 6.996094 C 2.800781 6.949219 2.675781 6.992188 2.628906 7.09375 C 2.578125 7.199219 2.621094 7.324219 2.722656 7.371094 C 3.472656 7.734375 4.238281 7.917969 5 7.917969 C 7.566406 7.917969 9.855469 5.25 9.949219 5.132812 C 10.015625 5.058594 10.015625 4.941406 9.949219 4.867188 Z M 9.949219 4.867188 "/>
		<path style=" stroke:none;fill-rule:nonzero;fill:rgb(0%,0%,0%);fill-opacity:1;" d="M 6.367188 2.324219 C 5.894531 2.164062 5.433594 2.082031 5 2.082031 C 2.433594 2.082031 0.144531 4.75 0.0507812 4.867188 C -0.0117188 4.9375 -0.015625 5.042969 0.0390625 5.117188 C 0.0664062 5.160156 0.753906 6.136719 1.949219 6.929688 C 1.984375 6.953125 2.023438 6.964844 2.0625 6.964844 C 2.128906 6.964844 2.195312 6.933594 2.238281 6.871094 C 2.300781 6.777344 2.273438 6.648438 2.179688 6.585938 C 1.300781 6 0.703125 5.296875 0.476562 5.011719 C 0.957031 4.492188 2.925781 2.5 5 2.5 C 5.386719 2.5 5.804688 2.574219 6.234375 2.71875 C 6.34375 2.757812 6.460938 2.695312 6.496094 2.585938 C 6.535156 2.476562 6.476562 2.359375 6.367188 2.324219 Z M 6.367188 2.324219 "/>
		<path style=" stroke:none;fill-rule:nonzero;fill:rgb(0%,0%,0%);fill-opacity:1;" d="M 8.6875 1.3125 C 8.609375 1.230469 8.476562 1.230469 8.394531 1.3125 L 1.3125 8.394531 C 1.230469 8.476562 1.230469 8.609375 1.3125 8.6875 C 1.351562 8.730469 1.40625 8.75 1.457031 8.75 C 1.511719 8.75 1.566406 8.730469 1.605469 8.6875 L 8.6875 1.605469 C 8.769531 1.523438 8.769531 1.390625 8.6875 1.3125 Z M 8.6875 1.3125 "/> 	
	</g>
</svg>
