<?xml version="1.0" encoding="UTF-8"?>
<svg xmlns="http://www.w3.org/2000/svg" xmlns:xlink="http://www.w3.org/1999/xlink" width="8pt" height="8pt" viewBox="0 0 8 8" version="1.1">
<g id="surface1">
<path style=" stroke:none;fill-rule:nonzero;fill:rgb(0%,0%,0%);fill-opacity:1;" d="M 7.53125 3.6875 C 7.441406 3.6875 7.371094 3.757812 7.371094 3.847656 C 7.371094 5.789062 5.789062 7.371094 3.847656 7.371094 C 1.902344 7.371094 0.320312 5.789062 0.320312 3.847656 C 0.320312 1.902344 1.902344 0.320312 3.847656 0.320312 C 5.617188 0.320312 6.652344 1.660156 7.210938 2.78125 C 7.25 2.863281 7.347656 2.894531 7.425781 2.855469 C 7.507812 2.816406 7.535156 2.71875 7.496094 2.640625 C 6.640625 0.914062 5.375 0 3.847656 0 C 1.726562 0 0 1.726562 0 3.847656 C 0 5.96875 1.726562 7.691406 3.847656 7.691406 C 5.96875 7.691406 7.691406 5.96875 7.691406 3.847656 C 7.691406 3.757812 7.621094 3.6875 7.53125 3.6875 Z M 7.53125 3.6875 "/>
<path style=" stroke:none;fill-rule:nonzero;fill:rgb(0%,0%,0%);fill-opacity:1;" d="M 7.53125 1.296875 C 7.441406 1.296875 7.371094 1.367188 7.371094 1.453125 L 7.371094 2.5625 L 6.25 2.5625 C 6.164062 2.5625 6.089844 2.636719 6.089844 2.726562 C 6.089844 2.8125 6.164062 2.882812 6.25 2.882812 L 7.53125 2.882812 C 7.621094 2.882812 7.691406 2.8125 7.691406 2.726562 L 7.691406 1.453125 C 7.691406 1.367188 7.621094 1.296875 7.53125 1.296875 Z M 7.53125 1.296875 "/>
</g>
</svg>
